<svg id="svg" fill="#ffffff" stroke="#ffffff" width="38" height="38" version="1.1" viewBox="143 143 514 514" xmlns="http://www.w3.org/2000/svg" stroke-width="0">
    <g id="IconSvg_bgCarrier" stroke-width="0"></g>
    <g id="IconSvg_tracerCarrier" stroke-linecap="round" stroke-linejoin="round" stroke="#CCCCCC" stroke-width="0">
      <g xmlns="http://www.w3.org/2000/svg">
  <path d="m541.7 195.32h-283.39c-8.6914 0-15.742 7.0547-15.742 15.742v330.62c0 34.723 28.254 62.977 62.977 62.977h236.16c8.6914 0 15.742-7.0547 15.742-15.742v-377.86c0-8.6914-7.0508-15.746-15.742-15.746zm-15.746 31.488v251.91h-220.41c-11.477 0-22.215 3.1328-31.488 8.5156v-260.42zm0 299.14h-247.53c5.4648-9.3594 15.508-15.742 27.109-15.742h220.42zm-220.41 47.234c-11.602 0-21.648-6.3828-27.109-15.742l247.52-0.003906v15.742z"></path>
  <path d="m400 400h-31.488c-8.6914 0-15.742 7.0547-15.742 15.742 0 8.6914 7.0547 15.742 15.742 15.742h15.742c0 8.6914 7.0547 15.742 15.742 15.742 8.6914 0 15.742-7.0547 15.742-15.742v-2.7539c18.309-6.5117 31.488-23.961 31.488-44.477 0-26.047-21.184-47.23-47.23-47.23-8.6836 0-15.742-7.0625-15.742-15.742 0-8.6836 7.0625-15.742 15.742-15.742h31.488c8.6914 0 15.742-7.0547 15.742-15.742 0-8.6914-7.0547-15.742-15.742-15.742h-15.742c0-8.6914-7.0547-15.742-15.742-15.742-8.6914 0-15.742 7.0547-15.742 15.742v2.7539c-18.316 6.5039-31.488 23.953-31.488 44.477 0 26.047 21.184 47.23 47.23 47.23 8.6836 0 15.742 7.0625 15.742 15.742 0 8.6797-7.0625 15.742-15.742 15.742z"></path>
 </g>

      </g>
     <g id="IconSvg_iconCarrier">
      <g xmlns="http://www.w3.org/2000/svg">
  <path d="m541.7 195.32h-283.39c-8.6914 0-15.742 7.0547-15.742 15.742v330.62c0 34.723 28.254 62.977 62.977 62.977h236.16c8.6914 0 15.742-7.0547 15.742-15.742v-377.86c0-8.6914-7.0508-15.746-15.742-15.746zm-15.746 31.488v251.91h-220.41c-11.477 0-22.215 3.1328-31.488 8.5156v-260.42zm0 299.14h-247.53c5.4648-9.3594 15.508-15.742 27.109-15.742h220.42zm-220.41 47.234c-11.602 0-21.648-6.3828-27.109-15.742l247.52-0.003906v15.742z"></path>
  <path d="m400 400h-31.488c-8.6914 0-15.742 7.0547-15.742 15.742 0 8.6914 7.0547 15.742 15.742 15.742h15.742c0 8.6914 7.0547 15.742 15.742 15.742 8.6914 0 15.742-7.0547 15.742-15.742v-2.7539c18.309-6.5117 31.488-23.961 31.488-44.477 0-26.047-21.184-47.23-47.23-47.23-8.6836 0-15.742-7.0625-15.742-15.742 0-8.6836 7.0625-15.742 15.742-15.742h31.488c8.6914 0 15.742-7.0547 15.742-15.742 0-8.6914-7.0547-15.742-15.742-15.742h-15.742c0-8.6914-7.0547-15.742-15.742-15.742-8.6914 0-15.742 7.0547-15.742 15.742v2.7539c-18.316 6.5039-31.488 23.953-31.488 44.477 0 26.047 21.184 47.23 47.23 47.23 8.6836 0 15.742 7.0625 15.742 15.742 0 8.6797-7.0625 15.742-15.742 15.742z"></path>
 </g>

      </g>
      </svg>