<svg width="30" height="30" viewBox="0 0 30 30" fill="none" xmlns="http://www.w3.org/2000/svg">
<path d="M15 13.75C16.2361 13.75 17.4445 13.3834 18.4723 12.6967C19.5001 12.0099 20.3012 11.0338 20.7742 9.89178C21.2473 8.74974 21.3711 7.49307 21.1299 6.28069C20.8888 5.06831 20.2935 3.95466 19.4194 3.08059C18.5453 2.20651 17.4317 1.61125 16.2193 1.37009C15.0069 1.12894 13.7503 1.25271 12.6082 1.72576C11.4662 2.1988 10.4901 2.99988 9.80331 4.02769C9.11656 5.0555 8.75 6.26387 8.75 7.5C8.75198 9.157 9.4111 10.7456 10.5828 11.9172C11.7544 13.0889 13.343 13.748 15 13.75ZM15 3.75C15.7417 3.75 16.4667 3.96994 17.0834 4.38199C17.7001 4.79405 18.1807 5.37972 18.4645 6.06494C18.7484 6.75016 18.8226 7.50416 18.6779 8.23159C18.5333 8.95902 18.1761 9.62721 17.6517 10.1517C17.1272 10.6761 16.459 11.0333 15.7316 11.1779C15.0042 11.3226 14.2502 11.2484 13.5649 10.9646C12.8797 10.6807 12.294 10.2001 11.882 9.58339C11.4699 8.96671 11.25 8.24168 11.25 7.5C11.25 6.50544 11.6451 5.55161 12.3483 4.84835C13.0516 4.14509 14.0054 3.75 15 3.75ZM3.75 27.5V22.5C3.75198 20.843 4.4111 19.2544 5.58277 18.0828C6.75445 16.9111 8.34301 16.252 10 16.25H20C21.657 16.252 23.2456 16.9111 24.4172 18.0828C25.5889 19.2544 26.248 20.843 26.25 22.5V27.5C26.25 27.8315 26.1183 28.1495 25.8839 28.3839C25.6495 28.6183 25.3315 28.75 25 28.75C24.6685 28.75 24.3505 28.6183 24.1161 28.3839C23.8817 28.1495 23.75 27.8315 23.75 27.5V22.5C23.75 21.5054 23.3549 20.5516 22.6517 19.8484C21.9484 19.1451 20.9946 18.75 20 18.75H10C9.00544 18.75 8.05161 19.1451 7.34835 19.8484C6.64509 20.5516 6.25 21.5054 6.25 22.5V27.5C6.25 27.8315 6.1183 28.1495 5.88388 28.3839C5.64946 28.6183 5.33152 28.75 5 28.75C4.66848 28.75 4.35054 28.6183 4.11612 28.3839C3.8817 28.1495 3.75 27.8315 3.75 27.5Z" fill="black" stroke="black" stroke-width="0.5"/>
</svg>
