<svg width="22" height="25" viewBox="0 0 22 25" fill="none" xmlns="http://www.w3.org/2000/svg">
<path d="M7.50003 21.2571V20.6321H2.81253C2.06691 20.6311 1.35212 20.3345 0.824885 19.8072C0.297654 19.28 0.00101915 18.5652 2.69795e-05 17.8196V17.3421C-0.00242309 16.7474 0.162045 16.164 0.474726 15.6582C0.787408 15.1524 1.23575 14.7445 1.76878 14.4808C2.00713 14.3616 2.21098 14.1833 2.36087 13.963C2.51077 13.7426 2.60171 13.4876 2.62503 13.2221L3.18253 7.08458C3.3565 5.14927 4.24826 3.34908 5.68244 2.03804C7.11661 0.727007 8.98942 0 10.9325 0C12.8756 0 14.7484 0.727007 16.1826 2.03804C17.6168 3.34908 18.5086 5.14927 18.6825 7.08458L19.24 13.2221C19.2653 13.4868 19.3571 13.7409 19.5071 13.9606C19.657 14.1802 19.8602 14.3584 20.0975 14.4783C20.631 14.7421 21.0798 15.1501 21.3931 15.6561C21.7064 16.1621 21.8716 16.7457 21.87 17.3408V17.8183C21.8694 18.564 21.5728 19.279 21.0455 19.8063C20.5182 20.3336 19.8032 20.6302 19.0575 20.6308H14.375V21.2571C14.375 22.1688 14.0129 23.0431 13.3682 23.6878C12.7236 24.3324 11.8492 24.6946 10.9375 24.6946C10.0258 24.6946 9.1515 24.3324 8.50685 23.6878C7.86219 23.0431 7.50003 22.1688 7.50003 21.2571ZM9.37503 21.2571C9.37503 21.6715 9.53965 22.0689 9.83267 22.3619C10.1257 22.655 10.5231 22.8196 10.9375 22.8196C11.3519 22.8196 11.7494 22.655 12.0424 22.3619C12.3354 22.0689 12.5 21.6715 12.5 21.2571V20.6321H9.37503V21.2571ZM5.05628 7.25708L4.50003 13.3921C4.44842 13.9762 4.24763 14.5372 3.91689 15.0213C3.58616 15.5055 3.13659 15.8966 2.61128 16.1571C2.38984 16.2661 2.20345 16.4351 2.07329 16.6448C1.94314 16.8545 1.87444 17.0965 1.87503 17.3433V17.8208C1.87569 18.0692 1.97471 18.3071 2.15042 18.4826C2.32613 18.658 2.5642 18.7568 2.81253 18.7571H19.0625C19.3111 18.7568 19.5493 18.6579 19.7251 18.4821C19.9008 18.3064 19.9997 18.0681 20 17.8196V17.3421C20.0009 17.0958 19.9327 16.8543 19.8032 16.6448C19.6737 16.4354 19.4882 16.2664 19.2675 16.1571C18.7416 15.897 18.2913 15.5061 17.9599 15.0219C17.6285 14.5377 17.4271 13.9765 17.375 13.3921L16.82 7.25708C16.6863 5.78952 16.0088 4.42497 14.9205 3.43136C13.8322 2.43775 12.4118 1.88687 10.9382 1.88687C9.46451 1.88687 8.04411 2.43775 6.95583 3.43136C5.86755 4.42497 5.19002 5.78952 5.05628 7.25708Z" fill="black"/>
</svg>
