<svg width="49" height="48" viewBox="0 0 49 48" fill="none" xmlns="http://www.w3.org/2000/svg">
<path d="M42.9215 0.208357C42.7492 0.314087 40.078 2.89387 36.9976 5.92828C33.9172 8.96269 31.203 11.5848 30.9768 11.7539C30.2013 12.3249 30.1798 12.3143 24.8052 9.82967C22.1556 8.60322 19.7107 7.53536 19.3875 7.45077C18.6982 7.27104 18.2243 7.26046 17.438 7.40848C16.0917 7.66223 16.124 7.61994 9.44619 14.1645C2.71451 20.7514 2.87607 20.5717 3.12379 21.4493C3.36075 22.3268 4.43782 22.8026 5.25639 22.3797C5.41795 22.2951 8.18602 19.6201 11.4172 16.4483C14.6484 13.2764 17.4165 10.6015 17.5781 10.5169C18.2566 10.168 18.4936 10.2526 23.3512 12.494C25.8823 13.6676 28.198 14.7249 28.4888 14.8412C28.8873 14.9998 29.2858 15.0527 29.9967 15.0632C31.0953 15.0632 31.86 14.8412 32.657 14.302C32.9155 14.1223 35.8128 11.3204 39.1195 8.07457C44.7525 2.52382 45.108 2.14319 45.1834 1.73085C45.3772 0.514971 43.9663 -0.436586 42.9215 0.208357Z" fill="white"/>
<path d="M41.338 12.9489C40.3578 13.2133 39.55 13.9639 39.2269 14.9049C39.13 15.1693 39.0977 19.2292 39.0977 30.4999V45.7354L39.3562 46.2641C39.6577 46.909 40.4009 47.5962 41.0472 47.8394C41.4672 47.998 41.8657 48.0192 43.8475 47.9874C46.1417 47.9557 46.1525 47.9557 46.6587 47.6703C46.928 47.5011 47.3372 47.1733 47.5419 46.9302C48.2958 46.0738 48.2527 47.0465 48.2527 30.4576C48.2527 13.5728 48.3174 14.7781 47.4234 13.8476C46.5617 12.9489 46.2602 12.8538 43.8906 12.8326C42.4689 12.8115 41.6934 12.8432 41.338 12.9489Z" fill="white"/>
<path d="M15.1011 23.5747C14.3471 23.8284 13.8301 24.2619 13.4208 24.9597L13.0869 25.5412L13.0546 35.522C13.0223 46.7081 12.9792 46.0843 13.8086 47.0042C14.6164 47.9029 14.7995 47.9557 17.4383 47.9874C19.4201 48.0192 19.8186 47.998 20.2387 47.8394C20.8311 47.6174 21.585 46.9513 21.8974 46.3698L22.1343 45.9469L22.1666 35.8392L22.1882 25.721L21.8435 25.0549C21.4235 24.2725 20.8203 23.7756 20.0125 23.5324C19.1616 23.2892 15.8658 23.3104 15.1011 23.5747Z" fill="white"/>
<path d="M27.8963 28.8823C27.3039 29.1466 26.6684 29.7281 26.3561 30.299C26.1191 30.7219 26.1191 30.7325 26.1191 38.3344C26.1191 45.9363 26.1191 45.9469 26.3561 46.3698C26.6684 46.9513 27.4224 47.6174 28.0148 47.8394C28.4348 47.998 28.8334 48.0192 30.8152 47.9874C33.454 47.9557 33.6371 47.9029 34.4449 47.0042C35.2419 46.1055 35.2204 46.4121 35.2204 38.3344C35.2204 30.2462 35.2527 30.5634 34.4341 29.6541C34.1864 29.3792 33.7556 29.0514 33.4432 28.914C32.937 28.6708 32.7862 28.6602 30.6428 28.6602C28.5964 28.6602 28.3379 28.6814 27.8963 28.8823Z" fill="white"/>
<path d="M2.2403 36.9388C1.34634 37.1925 0.560076 37.9009 0.215414 38.789C0.0215414 39.3071 0 39.5926 0 42.3944C0 45.82 0.0538535 46.1795 0.710866 46.9302C0.915509 47.1733 1.3248 47.5011 1.59406 47.6703C2.10029 47.9557 2.11106 47.9557 4.40521 47.9874C6.38702 48.0192 6.78554 47.998 7.20559 47.8394C7.85184 47.5962 8.59501 46.909 8.89659 46.2641C9.14432 45.746 9.15509 45.672 9.15509 42.5213C9.15509 40.4384 9.11201 39.1697 9.03661 38.9159C8.83197 38.2393 8.1965 37.5309 7.48563 37.1714C6.86093 36.8542 6.85016 36.8542 4.80373 36.8331C3.37123 36.8119 2.59574 36.8436 2.2403 36.9388Z" fill="white"/>
</svg>
