<svg width="49" height="43" viewBox="0 0 49 43" fill="none" xmlns="http://www.w3.org/2000/svg">
<path d="M22.5444 0.189449C22.242 0.298374 21.8357 0.491081 21.6467 0.608383C21.4482 0.725685 16.6761 4.92342 11.0251 9.9339C2.74711 17.2904 0.715404 19.1337 0.516959 19.4856C-0.39022 21.1111 -0.087827 22.8874 1.30129 24.1274C2.17067 24.8899 3.27629 25.2921 4.54256 25.2921H5.18515V31.9951C5.18515 36.528 5.22295 38.8321 5.2891 39.1337C5.64819 40.6587 7.03731 42.0411 8.75716 42.569C9.38085 42.7617 9.4281 42.7617 13.9923 42.7617C18.4904 42.7617 18.5944 42.7617 18.8495 42.5858C18.9913 42.4936 19.1992 42.3093 19.3031 42.1836C19.5016 41.9574 19.5016 41.8484 19.5488 36.3604L19.5961 30.7634L19.8796 30.3528C20.2386 29.8417 20.9663 29.4312 21.6656 29.3558C21.9302 29.3223 23.2531 29.3139 24.6044 29.3306L27.0614 29.3558L27.5622 29.5988C28.0347 29.8334 28.3371 30.1099 28.63 30.5707C28.734 30.7466 28.7718 31.7772 28.8096 36.3688C28.8568 41.8484 28.8568 41.9574 29.0553 42.1836C29.1592 42.3093 29.3671 42.4936 29.5089 42.5858C29.764 42.7617 29.868 42.7617 34.3661 42.7617C38.9303 42.7617 38.9776 42.7617 39.6012 42.569C41.3211 42.0411 42.7102 40.6587 43.0693 39.1337C43.1355 38.8321 43.1733 36.528 43.1733 31.9951V25.2921H43.8158C45.5924 25.2921 47.1422 24.4542 47.9076 23.0717C48.2289 22.4936 48.2289 22.4768 48.2289 21.3541C48.2289 19.4437 49.3156 20.5749 37.1821 9.82497C25.1242 -0.874649 26.3337 0.0470085 24.2737 0.00511551C23.2059 -0.0116425 23.0452 0.00511932 22.5444 0.189449ZM24.8785 2.58576C25.436 2.82037 45.1861 20.357 45.394 20.7843C45.5924 21.2117 45.5735 21.5719 45.3372 21.9909C44.9876 22.636 44.6947 22.7282 42.8709 22.7785C41.1604 22.8204 41.0376 22.8539 40.584 23.3985C40.3856 23.6247 40.3856 23.7169 40.3383 31.2242L40.2911 38.8237L40.0265 39.2175C39.8847 39.4354 39.6296 39.7119 39.4595 39.8208C38.798 40.2732 38.5996 40.29 34.9897 40.29H31.6445V35.5979C31.6445 32.5229 31.6067 30.7634 31.5406 30.4701C31.172 28.8949 29.7451 27.5376 27.9119 27.0265C27.2882 26.8505 27.0803 26.8422 24.1792 26.8422C20.7962 26.8422 20.6261 26.8589 19.4165 27.4035C18.2164 27.9398 17.1013 29.2636 16.8178 30.4701C16.7517 30.7634 16.7139 32.5229 16.7139 35.5979V40.29H13.3687C9.75884 40.29 9.5604 40.2732 8.89891 39.8208C8.72882 39.7119 8.47367 39.4354 8.33192 39.2175L8.06733 38.8237L8.02008 31.2242C7.97283 23.7169 7.97283 23.6247 7.77439 23.3985C7.3208 22.8539 7.19795 22.8204 5.48754 22.7785C3.66373 22.7282 3.37079 22.636 3.02115 21.9909C2.7849 21.5719 2.76601 21.2117 2.96445 20.7843C3.1629 20.3654 22.9224 2.82874 23.4705 2.58576C23.9524 2.37629 24.3965 2.37629 24.8785 2.58576Z" fill="white"/>
</svg>
