<svg width="49" height="48" viewBox="0 0 49 48" fill="none" xmlns="http://www.w3.org/2000/svg">
<path d="M6.11217 0.114807C4.69294 0.424652 3.70893 0.894115 2.67762 1.75793C1.57062 2.66869 0.700156 3.98318 0.264924 5.37279L0 6.21782V24.0105V41.8031L0.264924 42.6481C1.02185 45.0799 2.94255 46.986 5.39309 47.7371L6.24463 48H17.0308H27.817L28.6685 47.7371C31.1191 46.986 33.0492 45.0706 33.7967 42.6481C34.0522 41.8031 34.0522 41.7937 34.0616 38.9863C34.0616 36.1789 34.0616 36.1695 33.8345 35.8127C33.7115 35.6156 33.4372 35.3433 33.229 35.2024C32.9073 34.9865 32.737 34.9489 32.2166 34.9489C31.6962 34.9489 31.5259 34.9865 31.2042 35.2024C30.9961 35.3433 30.7217 35.6156 30.5987 35.8127C30.3811 36.1602 30.3716 36.2447 30.3148 38.7516C30.2675 41.1458 30.2486 41.3712 30.0499 41.8782C29.6431 42.911 28.801 43.7091 27.7318 44.0753C27.2777 44.2349 26.6154 44.2443 16.9835 44.2443H6.71771L6.16894 44.0283C5.11871 43.6058 4.32393 42.7796 3.95493 41.7186C3.79409 41.2679 3.78463 40.3478 3.78463 24.0105C3.78463 7.67316 3.79409 6.75301 3.95493 6.30233C4.32393 5.24134 5.11871 4.41508 6.16894 3.99257L6.71771 3.77662H16.9835C26.6154 3.77662 27.2777 3.78601 27.7318 3.94562C28.801 4.31181 29.6431 5.10989 30.0499 6.14271C30.2486 6.64973 30.2675 6.87507 30.3148 9.27872L30.3716 11.8702L30.6271 12.2457C31.015 12.8279 31.4786 13.072 32.2166 13.072C32.9546 13.072 33.4182 12.8279 33.8062 12.2457L34.0616 11.8608V9.04399C34.0522 6.22721 34.0522 6.21782 33.7967 5.37279C33.0492 2.95036 31.1191 1.03495 28.6685 0.283813L27.817 0.020916L17.2674 0.00213623C8.52487 -0.00725174 6.61363 0.011528 6.11217 0.114807Z" fill="black"/>
<path d="M40.685 16.2083C39.8524 16.5933 39.4266 17.4383 39.6158 18.3397C39.701 18.7716 39.8334 18.9218 41.423 20.5086L43.1355 22.2268L31.4505 22.2456L19.7655 22.2738L19.3775 22.5273C18.7815 22.9123 18.5449 23.3723 18.5449 24.1141C18.5449 24.6211 18.5922 24.7901 18.8004 25.1094C18.9423 25.3159 19.2167 25.5882 19.4154 25.7103L19.7749 25.9356L31.4505 25.9638L43.1355 25.9826L41.423 27.7008C39.8334 29.2876 39.701 29.4378 39.6158 29.8697C39.2941 31.3908 40.808 32.6395 42.1988 32.0011C42.4448 31.8884 43.4478 30.9495 45.0941 29.3063C47.4311 26.959 47.6298 26.7337 47.9325 26.0764C48.2448 25.3816 48.2542 25.3535 48.2542 24.1047C48.2542 22.8559 48.2448 22.8278 47.9325 22.133C47.6298 21.4757 47.4311 21.2504 45.0941 18.9031C43.4478 17.2599 42.4448 16.321 42.1988 16.2083C41.7163 15.983 41.1675 15.983 40.685 16.2083Z" fill="black"/>
</svg>
