<svg width="42" height="48" viewBox="0 0 42 48" fill="none" xmlns="http://www.w3.org/2000/svg">
<path d="M21.1193 8.36204C21.9644 8.36204 23.9723 8.87885 23.9723 8.87885C29.4119 10.0843 33.2407 14.9295 33.2407 20.4V35.1245L34.3529 36.2049L35.2821 37.1076H6.71785L7.6471 36.2049L8.75927 35.1245V20.4C8.75927 14.9296 12.5881 10.0843 18.0277 8.87885C18.0277 8.87885 20.1805 8.36204 20.8807 8.36204M21 0C18.8998 0 17.2941 1.55977 17.2941 3.6V5.27988C10.2525 6.84023 4.94109 13.08 4.94109 20.4V33.6L0 38.4V40.8H42V38.4L37.0589 33.6V20.4C37.0589 13.08 31.7473 6.84023 24.7059 5.27988V3.6C24.7059 1.55977 23.1002 0 21 0ZM25.9411 43.2H16.0588C16.0588 45.8401 18.2821 48 21 48C23.7179 48 25.9411 45.8401 25.9411 43.2Z" fill="white"/>
</svg>
