<svg width="48" height="48" viewBox="0 0 48 48" fill="none" xmlns="http://www.w3.org/2000/svg">
<path fill-rule="evenodd" clip-rule="evenodd" d="M24.0004 15.6279C21.6553 15.6279 19.4062 16.51 17.748 18.0801C16.0898 19.6501 15.1582 21.7796 15.1582 24C15.1582 26.2204 16.0898 28.3499 17.748 29.92C19.4062 31.4901 21.6553 32.3721 24.0004 32.3721C26.3455 32.3721 28.5945 31.4901 30.2527 29.92C31.911 28.3499 32.8426 26.2204 32.8426 24C32.8426 21.7796 31.911 19.6501 30.2527 18.0801C28.5945 16.51 26.3455 15.6279 24.0004 15.6279ZM18.6951 24C18.6951 22.6678 19.254 21.3901 20.249 20.448C21.2439 19.506 22.5933 18.9768 24.0004 18.9768C25.4074 18.9768 26.7569 19.506 27.7518 20.448C28.7467 21.3901 29.3057 22.6678 29.3057 24C29.3057 25.3323 28.7467 26.61 27.7518 27.552C26.7569 28.494 25.4074 29.0233 24.0004 29.0233C22.5933 29.0233 21.2439 28.494 20.249 27.552C19.254 26.61 18.6951 25.3323 18.6951 24Z" fill="white"/>
<path fill-rule="evenodd" clip-rule="evenodd" d="M23.9411 0C22.8918 0 22.017 -4.15846e-08 21.3002 0.0446511C20.5675 0.0735398 19.8449 0.216866 19.1616 0.468837C18.3746 0.77713 17.6595 1.22919 17.0571 1.79919C16.4547 2.36919 15.9768 3.04597 15.6506 3.79088C15.3087 4.57228 15.2168 5.39833 15.179 6.29581C15.1753 6.62405 15.0835 6.94599 14.9123 7.23145C14.7412 7.51691 14.4962 7.75652 14.2005 7.92781C13.8961 8.08522 13.5544 8.16677 13.2075 8.16482C12.8606 8.16287 12.5199 8.07747 12.2175 7.91665C11.3781 7.49693 10.5764 7.15981 9.68982 7.04819C8.84555 6.94304 7.98768 6.99637 7.16519 7.20514C6.34269 7.41391 5.57168 7.77403 4.89618 8.26493C4.32503 8.70001 3.8335 9.22123 3.44134 9.80763C3.0405 10.3747 2.60193 11.0913 2.07847 11.9509L2.01952 12.0491C1.49371 12.9087 1.05749 13.6253 0.74153 14.237C0.411422 14.8755 0.152052 15.5051 0.0577353 16.2017C-0.167209 17.8158 0.294186 19.4484 1.34044 20.7405C1.88512 21.4125 2.59485 21.9014 3.39654 22.3792C3.69543 22.5465 3.94445 22.783 4.12017 23.0666C4.29589 23.3501 4.39254 23.6713 4.40101 24C4.39254 24.3287 4.29589 24.6499 4.12017 24.9334C3.94445 25.217 3.69543 25.4535 3.39654 25.6208C2.59485 26.0986 1.88748 26.5875 1.34044 27.2595C0.821975 27.8991 0.441638 28.6292 0.221146 29.4079C0.000654173 30.1867 -0.0556739 30.9989 0.0553775 31.7983C0.152052 32.4949 0.409065 33.1245 0.739173 33.763C1.05749 34.3747 1.49371 35.0914 2.01952 35.9509L2.07847 36.0491C2.60193 36.9087 3.0405 37.6253 3.44134 38.1924C3.85869 38.7795 4.3067 39.3087 4.89618 39.7328C5.57151 40.2241 6.34243 40.5847 7.16494 40.7938C7.98744 41.003 8.8454 41.0567 9.68982 40.9518C10.5764 40.8402 11.3781 40.5053 12.2175 40.0834C12.5196 39.9227 12.8598 39.8374 13.2063 39.8355C13.5528 39.8335 13.8941 39.915 14.1981 40.0722C14.4955 40.2421 14.742 40.4813 14.9141 40.767C15.0862 41.0527 15.1782 41.3753 15.1814 41.7042C15.2168 42.6017 15.3087 43.4277 15.653 44.2091C15.9786 44.9542 16.456 45.6313 17.058 46.2017C17.66 46.7721 18.3748 47.2246 19.1616 47.5334C19.8454 47.8013 20.5527 47.9062 21.3002 47.9531C22.017 48 22.8918 48 23.9411 48H24.0589C25.1082 48 25.983 48 26.6998 47.9553C27.4496 47.9062 28.1546 47.8013 28.8384 47.5312C29.6254 47.2229 30.3405 46.7708 30.9429 46.2008C31.5453 45.6308 32.0232 44.954 32.3494 44.2091C32.6913 43.4277 32.7832 42.6017 32.821 41.7042C32.8243 41.3756 32.9159 41.0532 33.0871 40.7673C33.2583 40.4814 33.5034 40.2414 33.7995 40.07C34.1041 39.9129 34.4459 39.8317 34.7928 39.8341C35.1397 39.8364 35.4802 39.9222 35.7825 40.0834C36.6219 40.5031 37.4236 40.8402 38.3102 40.9496C40.0149 41.1626 41.7392 40.7257 43.1038 39.7351C43.6933 39.3064 44.1413 38.7795 44.5587 38.1924C44.9595 37.6253 45.3981 36.9087 45.9215 36.0491L45.9805 35.9509C46.5063 35.0914 46.9425 34.3747 47.2585 33.763C47.5886 33.1245 47.8479 32.4927 47.9423 31.7983C48.1672 30.1842 47.7058 28.5516 46.6596 27.2595C46.1149 26.5875 45.4051 26.0986 44.6035 25.6208C44.3046 25.4535 44.0555 25.217 43.8798 24.9334C43.7041 24.6499 43.6075 24.3287 43.599 24C43.599 23.3794 43.9574 22.7632 44.6035 22.3792C45.4051 21.9014 46.1125 21.4125 46.6596 20.7405C47.178 20.1009 47.5584 19.3709 47.7789 18.5921C47.9993 17.8133 48.0557 17.0011 47.9446 16.2017C47.8324 15.5156 47.6014 14.8518 47.2608 14.237C46.8583 13.4953 46.4313 12.7656 45.9805 12.0491L45.9215 11.9509C45.4908 11.2233 45.0363 10.5085 44.5587 9.80763C44.1665 9.22185 43.675 8.70136 43.1038 8.26716C42.4285 7.77587 41.6576 7.41535 40.8351 7.2062C40.0126 6.99704 39.1546 6.94335 38.3102 7.04819C37.4236 7.15981 36.6219 7.4947 35.7825 7.91665C35.4803 8.07707 35.1401 8.16225 34.7937 8.1642C34.4473 8.16615 34.106 8.08482 33.8018 7.92781C33.5052 7.75706 33.2594 7.51768 33.0874 7.23219C32.9154 6.9467 32.8229 6.62447 32.8186 6.29581C32.7832 5.39833 32.6913 4.57228 32.347 3.79088C32.0214 3.04577 31.544 2.36868 30.942 1.7983C30.34 1.22791 29.6252 0.775398 28.8384 0.466605C28.1546 0.198698 27.4473 0.0937675 26.6998 0.0468838C25.983 6.2377e-08 25.1082 0 24.0589 0H23.9411ZM20.515 3.56093C20.6966 3.48949 20.9724 3.42474 21.5407 3.38679C22.1231 3.34884 22.8776 3.34884 24 3.34884C25.1224 3.34884 25.8769 3.34884 26.4593 3.38679C27.0276 3.42474 27.3034 3.48949 27.485 3.56093C28.2089 3.84447 28.7818 4.38698 29.0813 5.07237C29.1756 5.2867 29.2534 5.62381 29.2841 6.42084C29.3548 8.18902 30.3192 9.89247 32.0311 10.8279C33.7429 11.7656 35.7825 11.7031 37.4354 10.877C38.1805 10.5042 38.5271 10.3993 38.7723 10.3702C39.5471 10.2733 40.3307 10.4717 40.951 10.9217C41.1067 11.0355 41.3047 11.2298 41.6231 11.6763C41.9508 12.1362 42.3281 12.7546 42.8893 13.6744C43.4504 14.5942 43.8253 15.2149 44.0824 15.7105C44.3347 16.195 44.4125 16.454 44.436 16.6393C44.5384 17.3728 44.3289 18.1148 43.8536 18.7021C43.7027 18.8874 43.4339 19.1196 42.7218 19.5438C41.1373 20.486 40.0621 22.1291 40.0621 24C40.0621 25.8709 41.1373 27.514 42.7218 28.4562C43.4339 28.8804 43.7027 29.1126 43.8536 29.2979C44.3299 29.885 44.5374 30.6262 44.436 31.3607C44.4125 31.546 44.3323 31.8073 44.0824 32.2895C43.8253 32.7873 43.4504 33.4058 42.8893 34.3256C42.3281 35.2454 41.9484 35.8638 41.6231 36.3237C41.3047 36.7702 41.1067 36.9645 40.951 37.0783C40.3307 37.5283 39.5471 37.7267 38.7723 37.6298C38.5271 37.6007 38.1829 37.4958 37.4354 37.123C35.7849 36.2969 33.7429 36.2344 32.0311 37.1699C30.3192 38.1075 29.3548 39.811 29.2841 41.5792C29.2534 42.3762 29.1756 42.7133 29.0813 42.9276C28.9332 43.2665 28.716 43.5744 28.442 43.8338C28.1681 44.0931 27.8429 44.2988 27.485 44.4391C27.3034 44.5105 27.0276 44.5753 26.4593 44.6132C25.8769 44.6512 25.1224 44.6512 24 44.6512C22.8776 44.6512 22.1231 44.6512 21.5407 44.6132C20.9724 44.5753 20.6966 44.5105 20.515 44.4391C20.1571 44.2988 19.8319 44.0931 19.558 43.8338C19.284 43.5744 19.0668 43.2665 18.9187 42.9276C18.8244 42.7133 18.7466 42.3762 18.7159 41.5792C18.6452 39.811 17.6808 38.1075 15.9689 37.1721C14.2571 36.2344 12.2175 36.2969 10.5646 37.123C9.8195 37.4958 9.47289 37.6007 9.22766 37.6298C8.45294 37.7267 7.66926 37.5283 7.04895 37.0783C6.89333 36.9645 6.69526 36.7702 6.37695 36.3237C5.93345 35.6701 5.51118 35.0037 5.11075 34.3256C4.54956 33.4058 4.17465 32.7851 3.91764 32.2895C3.66534 31.805 3.58753 31.546 3.56395 31.3607C3.46158 30.6272 3.67107 29.8852 4.14636 29.2979C4.29727 29.1126 4.56607 28.8804 5.27816 28.4562C6.86268 27.514 7.93789 25.8709 7.93789 24C7.93789 22.1291 6.86268 20.486 5.27816 19.5438C4.56607 19.1196 4.29727 18.8874 4.14636 18.7021C3.67107 18.1148 3.46158 17.3728 3.56395 16.6393C3.58753 16.454 3.6677 16.1927 3.91764 15.7105C4.17465 15.2127 4.54956 14.5942 5.11075 13.6744C5.67193 12.7546 6.05155 12.1362 6.37695 11.6763C6.69526 11.2298 6.89333 11.0355 7.04895 10.9217C7.66926 10.4717 8.45294 10.2733 9.22766 10.3702C9.47289 10.3993 9.81714 10.5042 10.5646 10.877C12.2151 11.7031 14.2571 11.7656 15.9689 10.8279C17.6808 9.89247 18.6452 8.18902 18.7159 6.42084C18.7466 5.62381 18.8244 5.2867 18.9187 5.07237C19.2181 4.38698 19.7911 3.84447 20.515 3.56093Z" fill="white"/>
</svg>
