<svg width="51" height="51" viewBox="0 0 51 51" fill="none" xmlns="http://www.w3.org/2000/svg">
<path d="M24.429 3.43066C21.5894 6.54443 20.059 10.6327 20.1559 14.8457C20.2529 19.0588 21.9698 23.0723 24.9497 26.0522C27.9296 29.032 31.9433 30.7488 36.1565 30.8458C40.3696 30.9428 44.458 29.4124 47.5719 26.5728C47.7305 26.4228 47.9279 26.3201 48.1418 26.2765C48.3557 26.2329 48.5776 26.2501 48.7823 26.3261C49.2394 26.5001 49.5355 26.9494 49.4966 27.4377C49.1785 31.2941 47.9341 35.0167 45.8692 38.2891C43.8043 41.5616 40.9799 44.2873 37.636 46.2345C34.2921 48.1817 30.5276 49.2929 26.6622 49.4737C22.7969 49.6545 18.945 48.8996 15.4339 47.273C11.9229 45.6465 8.85634 43.1964 6.49496 40.1309C4.13358 37.0655 2.54714 33.4753 1.87044 29.6655C1.19374 25.8557 1.44678 21.9388 2.60806 18.2477C3.76935 14.5566 5.80455 11.2004 8.54072 8.46427C12.5616 4.43159 17.8879 1.96371 23.5641 1.50344C23.802 1.4845 24.0396 1.5441 24.2404 1.67312C24.4412 1.80213 24.5941 1.99344 24.6758 2.21771C24.8316 2.63328 24.7277 3.1008 24.429 3.42806V3.43066Z" stroke="white" stroke-width="3" stroke-linejoin="round"/>
</svg>
