<svg width="49" height="48" viewBox="0 0 49 48" fill="none" xmlns="http://www.w3.org/2000/svg">
<path d="M12.1785 0.178593C11.503 0.516251 11.2289 1.24784 11.503 1.94191C11.6695 2.36398 11.9436 2.5797 12.668 2.86108C13.0498 3.01115 13.3533 3.16122 13.3533 3.19874C13.3533 3.23626 12.9715 3.46136 12.5016 3.70523C6.77455 6.6222 2.30061 12.1279 0.675497 18.2901C0.127268 20.3629 0 21.4416 0 24.0115C0 26.0562 0.0293694 26.5814 0.215376 27.6132C0.851714 31.1304 1.95796 33.8786 3.90614 36.7205C6.84308 41.0069 11.3758 44.3647 16.3784 45.9685C17.2203 46.2312 17.3475 46.2499 17.7 46.1467C18.5811 45.8935 19.0118 45.1056 18.6888 44.3178C18.4832 43.7925 18.2091 43.5862 17.3867 43.3236C16.349 42.9953 14.7532 42.32 13.7938 41.8135C8.02765 38.7277 4.21941 33.5034 3.12295 27.2005C2.90757 25.9624 2.82926 23.2612 2.96631 21.9949C3.6516 15.9077 6.97035 10.5146 12.061 7.24124C13.0694 6.58468 14.7141 5.67489 14.7728 5.74054C14.8022 5.7593 14.7337 6.00317 14.626 6.26579C14.3714 6.8942 14.3812 7.25062 14.6456 7.70082C14.8707 8.08538 15.4679 8.4418 15.8791 8.4418C16.2119 8.4418 16.7014 8.21669 16.9657 7.94469C17.2007 7.70082 18.6888 3.97723 18.7964 3.36757C18.8748 2.92674 18.6496 2.42964 18.2384 2.13888C17.7685 1.8106 13.1673 0.000385284 12.8149 0.000385284C12.6484 0.000385284 12.3645 0.0754204 12.1785 0.178593Z" fill="white"/>
<path d="M30.3291 1.96025C29.5557 2.29791 29.2522 2.96384 29.5557 3.70481C29.7613 4.23943 30.0452 4.42702 31.2396 4.82095C34.5485 5.92772 37.6911 7.94427 39.9917 10.4392C42.7328 13.403 44.4069 16.7984 45.1411 20.869C45.3761 22.1821 45.3761 25.7275 45.1411 27.0969C44.0447 33.4936 40.3245 38.6147 34.4213 41.8318C33.922 42.1038 33.4912 42.3102 33.4717 42.282C33.4423 42.2633 33.5108 42.0194 33.6185 41.7568C33.873 41.1284 33.8632 40.772 33.5989 40.3218C33.3738 39.9372 32.7766 39.5808 32.3654 39.5808C32.0325 39.5808 31.5431 39.8059 31.2787 40.0779C31.0438 40.3218 29.5557 44.0454 29.448 44.655C29.3697 45.0958 29.5949 45.5929 30.0061 45.8837C30.4662 46.2026 34.852 47.9472 35.3317 47.9941C36.0855 48.0691 36.8491 47.4219 36.8491 46.6997C36.8491 45.9118 36.5163 45.5085 35.5667 45.1521C35.1947 45.0114 34.8912 44.8707 34.8912 44.8332C34.8912 44.7957 35.1261 44.655 35.41 44.5049C41.5874 41.3441 46.0711 35.8103 47.6473 29.4042C48.1368 27.4345 48.2543 26.3841 48.2543 24.0111C48.2543 21.6381 48.1368 20.5876 47.6473 18.618C45.9243 11.5928 40.7161 5.66509 33.7066 2.73874C32.6395 2.29791 31.1025 1.78205 30.848 1.78205C30.7795 1.78205 30.5543 1.86646 30.3291 1.96025Z" fill="white"/>
<path d="M22.7518 9.71684C19.0904 10.1389 16.0164 11.5271 13.5591 13.8907C11.4152 15.9447 9.96626 18.5803 9.37887 21.4785C9.13413 22.7166 9.13413 25.3053 9.37887 26.5434C10.5536 32.4148 15.1059 36.8325 21.2833 38.0893C22.7615 38.3895 25.4831 38.3895 26.9614 38.0893C28.4005 37.7986 29.5753 37.4047 30.8284 36.8138C34.9792 34.8347 37.9651 31.0173 38.8658 26.5434C39.1105 25.3053 39.1105 22.7166 38.8658 21.4785C37.9553 16.9577 34.9597 13.1591 30.7305 11.1706C28.6159 10.1764 26.932 9.77312 24.5629 9.71684C23.7601 9.69809 22.9378 9.69809 22.7518 9.71684ZM26.6677 12.7464C31.3766 13.7687 34.9009 17.2016 35.9288 21.7787C36.1736 22.8573 36.1736 25.1646 35.9288 26.2432C35.4296 28.5037 34.3918 30.3702 32.7569 31.9928C31.0535 33.6998 28.9389 34.816 26.4523 35.3224C25.4635 35.5288 22.9182 35.5569 22.0175 35.3787C16.966 34.347 13.3731 30.9611 12.3158 26.2432C12.0711 25.1552 12.0711 22.8573 12.3158 21.7599C12.5214 20.8501 12.9619 19.5839 13.3242 18.8992C14.078 17.4736 15.5367 15.7759 16.8191 14.8567C18.4834 13.6562 20.5197 12.8495 22.5755 12.5682C23.5056 12.4462 25.7083 12.54 26.6677 12.7464Z" fill="white"/>
<path d="M23.476 15.3818C23.0159 15.6069 22.6537 16.1415 22.6537 16.6198C22.6537 16.9106 22.6145 16.9481 22.1838 17.0888C19.9615 17.8485 18.9336 20.2403 19.9615 22.2568C20.3531 23.0072 20.6761 23.2979 23.153 25.0706C24.4158 25.9617 25.5123 26.7777 25.5906 26.8621C25.6689 26.9559 25.7375 27.1997 25.7375 27.4061C25.7375 27.7156 25.6689 27.8375 25.4144 28.0532C25.1109 28.3159 25.062 28.3252 24.1222 28.3252C23.1921 28.3252 23.1334 28.3159 22.8495 28.0626C22.6341 27.875 22.5264 27.6781 22.4579 27.3123C22.3306 26.6651 22.0761 26.3181 21.5572 26.1211C20.823 25.8397 20.0398 26.1586 19.7069 26.8808C19.5307 27.256 19.5209 27.3779 19.609 27.9219C19.8146 29.1788 20.6272 30.2386 21.7922 30.7639C22.1348 30.9233 22.4677 31.0453 22.5362 31.0453C22.6047 31.0453 22.6537 31.1766 22.6537 31.3829C22.6537 31.88 23.0061 32.4146 23.4858 32.6397C23.9949 32.8742 24.2494 32.8742 24.7683 32.6304C25.2284 32.424 25.5906 31.8613 25.5906 31.3642C25.5906 31.1203 25.6396 31.0734 26.0703 30.9233C27.1276 30.5669 28.0283 29.7228 28.4492 28.7004C28.7332 27.997 28.7332 26.787 28.459 26.1117C28.0479 25.1175 27.7542 24.8361 25.1305 22.9603C23.476 21.7785 22.6145 21.1032 22.546 20.9437C22.4089 20.5873 22.5264 20.2027 22.8691 19.9307C23.1334 19.715 23.2313 19.6963 24.1319 19.6963C25.0522 19.6963 25.1109 19.7056 25.3948 19.9495C25.62 20.1465 25.7179 20.3341 25.7766 20.7092C25.8745 21.347 26.1291 21.6659 26.6871 21.891C27.3038 22.1349 27.7835 22.0411 28.2437 21.5721C28.6744 21.1407 28.7723 20.7186 28.6255 19.9776C28.3905 18.7958 27.5682 17.7641 26.4521 17.2576C26.1095 17.0982 25.7766 16.9762 25.7179 16.9762C25.6396 16.9762 25.5906 16.8449 25.5906 16.6386C25.5906 16.1415 25.2382 15.6069 24.7585 15.3818C24.2494 15.1473 23.9753 15.1473 23.476 15.3818Z" fill="white"/>
</svg>
